<?xml version="1.0" encoding="UTF-8"?>
<svg width="56px" height="56px" viewBox="0 0 56 56" version="1.1" xmlns="http://www.w3.org/2000/svg" xmlns:xlink="http://www.w3.org/1999/xlink">
    <title>Shape</title>
    <g id="Page-1" stroke="none" stroke-width="1" fill="none" fill-rule="evenodd">
        <g id="Artboard" transform="translate(-6.000000, -3.000000)" fill="#006FB9" fill-rule="nonzero">
            <path d="M61.1672034,13.2847072 L34.2128465,3.06064082 C34.0009446,2.97978639 33.7666903,2.97978639 33.5547884,3.06064082 L6.60043157,13.2847072 C6.23913507,13.4214616 6,13.7674409 6,14.1537529 L6,47.6143338 C6,47.9993691 6.23719788,48.3446073 6.59671373,48.48245 L33.5510706,58.8366408 C33.7644687,58.9180674 34.0003778,58.9180674 34.213776,58.8366408 L61.1681328,48.575396 C61.5287459,48.4384593 61.7676349,48.0930172 61.7676349,47.7072798 L61.7676349,14.1537529 C61.7676349,13.7674409 61.5284999,13.4214616 61.1672034,13.2847072 Z M33.8838175,4.92327983 L58.2180249,14.1537529 L33.8838175,23.3842259 L26.4918175,20.5800433 L38.0608133,16.1985661 C38.4218729,16.0616154 38.6606428,15.7156804 38.6606428,15.3295205 C38.6606428,14.9433606 38.4218729,14.5974256 38.0608133,14.4604748 L31.1270374,11.8301014 C30.9147471,11.7496176 30.6803401,11.7496176 30.4680498,11.8301014 L16.9425395,16.9579354 L9.54960999,14.1537529 L33.8838175,4.92327983 Z M18.0829876,19.3782508 L22.7302905,21.1442259 L22.7302905,35.0266491 L18.0829876,33.2467321 L18.0829876,19.3782508 Z M19.5626888,17.9515288 L30.7980083,13.6890226 L35.109776,15.3248732 L23.8707386,19.5855205 L19.5626888,17.9515288 Z M7.8589212,15.5005412 L16.2240664,18.6737197 L16.2240664,33.886201 C16.2241066,34.2714701 16.461828,34.6167761 16.8217096,34.7543172 L23.3279336,37.2452715 C23.6136381,37.3544633 23.9347755,37.3161049 24.1867243,37.1426928 C24.438673,36.9692808 24.5891797,36.6830146 24.5892117,36.3771553 L24.5892117,21.8459686 L32.9543569,25.019147 L32.9543569,56.61523 L7.8589212,46.9757943 L7.8589212,15.5005412 Z M34.813278,56.6198773 L34.813278,25.0182176 L59.9087137,15.5005412 L59.9087137,47.0668815 L34.813278,56.6198773 Z" id="Shape"></path>
        </g>
    </g>
</svg>