<?xml version="1.0" encoding="UTF-8"?>
<svg width="60px" height="60px" viewBox="0 0 60 60" version="1.1" xmlns="http://www.w3.org/2000/svg" xmlns:xlink="http://www.w3.org/1999/xlink">
    <title>Group 6</title>
    <g id="Desktop" stroke="none" stroke-width="1" fill="none" fill-rule="evenodd">
        <g id="[Desktop]-CDA---Home--Copy" transform="translate(-293.000000, -842.000000)">
            <g id="Group-6" transform="translate(293.000000, 842.000000)">
                <circle id="Oval" cx="30" cy="30" r="30"></circle>
                <g id="credit-card-(1)" transform="translate(12.000000, 16.000000)" fill="#006FB9" fill-rule="nonzero">
                    <path d="M3.05747126,28 L33.6321839,28 C35.3199929,27.9978301 36.6877596,26.4320971 36.6896552,24.5 L36.6896552,3.5 C36.6877596,1.56790291 35.3199929,0.00216994949 33.6321839,0 L3.05747126,0 C1.36966231,0.00216994949 0.00189558806,1.56790291 0,3.5 L0,24.5 C0.00189558806,26.4320971 1.36966231,27.9978301 3.05747126,28 Z M1.22298851,3.5 C1.22416789,2.34076171 2.04480333,1.40135008 3.05747126,1.4 L33.6321839,1.4 C34.6448518,1.40135008 35.4654873,2.34076171 35.4666667,3.5 L35.4666667,24.5 C35.4654873,25.6592383 34.6448518,26.5986499 33.6321839,26.6 L3.05747126,26.6 C2.04480333,26.5986499 1.22416789,25.6592383 1.22298851,24.5 L1.22298851,3.5 Z" id="Shape"></path>
                    <path d="M4.12131917,22 L15.0970716,22 C15.4433908,22 15.7241379,21.7761424 15.7241379,21.5 C15.7241379,21.2238576 15.4433908,21 15.0970716,21 L4.12131917,21 C3.77500002,21 3.49425287,21.2238576 3.49425287,21.5 C3.49425287,21.7761424 3.77500002,22 4.12131917,22 Z" id="Path"></path>
                    <path d="M1.48801026,9 L36.0752081,9 C36.4145579,9 36.6896552,8.77614237 36.6896552,8.5 C36.6896552,8.22385763 36.4145579,8 36.0752081,8 L1.48801026,8 C1.14866053,8 0.873563218,8.22385763 0.873563218,8.5 C0.873563218,8.77614237 1.14866053,9 1.48801026,9 Z" id="Path"></path>
                </g>
            </g>
        </g>
    </g>
</svg>