<?xml version="1.0" encoding="UTF-8"?>
<svg width="24px" height="24px" viewBox="0 0 24 24" version="1.1" xmlns="http://www.w3.org/2000/svg" xmlns:xlink="http://www.w3.org/1999/xlink">
    <title>Icon/System/Action/Shopping_Cart_Outline</title>
    <g id="Icon/System/Action/Shopping_Cart_Outline" stroke="none" stroke-width="1" fill="none" fill-rule="evenodd">
        <rect id="Path" fill-rule="nonzero" x="0" y="0" width="24" height="24"></rect>
        <path d="M9.97525589,17 C11.0699845,17 11.9752559,17.8844663 11.9752559,19 C11.9752559,20.1155337 11.0699845,21 9.97525589,21 C8.88052728,21 7.97525589,20.1155337 7.97525589,19 C7.97525589,17.8844663 8.88052728,17 9.97525589,17 Z M17.9422637,17 C19.0369923,17 19.9422637,17.8844663 19.9422637,19 C19.9422637,20.1155337 19.0369923,21 17.9422637,21 C16.8475351,21 15.9422637,20.1155337 15.9422637,19 C15.9422637,17.8844663 16.8475351,17 17.9422637,17 Z M3.82418205,2.00000002 C4.9480438,2.00000002 5.82741203,2.80627444 6.41932123,3.77655031 C7.01123043,4.74682619 6.85331504,5.01940925 7.8289505,5.01928693 C10.5590734,5.01894463 14.6542579,5.01898541 20.1145038,5.01940925 C20.2363076,5.01940925 20.3576801,5.03283668 20.4769317,5.05941066 L20.6540073,5.10909645 C21.606173,5.43258374 22.1661661,6.53562018 21.9559597,7.62198237 L21.92065,7.77697756 L19.987547,14.4696662 C19.7639659,15.3209945 19.1045247,15.9211022 18.3363819,15.9927902 L18.1814009,16 L9.65125521,16 C8.91515863,16 8.25168895,15.5135382 7.94389499,14.7647245 L4.88034516,5.38665774 C4.75713885,5.00810373 4.28689218,4.20120888 3.94105863,4.15218983 L3.82418205,4.14395108 L2.94250037,4.14395108 C2.42197179,4.14395108 2,3.66401129 2,3.07197555 C2,2.52222808 2.36384302,2.06913477 2.83258492,2.00721199 L2.94250037,2.00000002 L3.82418205,2.00000002 Z M8.02943295,7.54567142 C9.09149236,11.0835375 9.67993637,13.0437254 9.79476496,13.4262353 C9.90959355,13.8087451 10.2400066,14 10.786004,14 C14.8210523,14 17.0211496,14 17.3862961,14 C17.9340157,14 18.0850626,13.8513184 18.250909,13.2022898 C18.3554826,12.7930481 18.8605752,10.9214515 19.7661867,7.58749988 C19.818066,7.39650975 19.9257677,7.00013229 19.1912548,6.99871028 C12.3052574,6.98537898 8.70937704,6.98610433 8.40347526,7.00013229 C8.08687556,7.01465084 7.96219479,7.19649722 8.02943295,7.54567142 Z" id="Shopping_Cart_Outline" fill="#FFFFFF" fill-rule="nonzero"></path>
    </g>
</svg>