<?xml version="1.0" encoding="UTF-8"?>
<svg width="68px" height="61px" viewBox="0 0 68 61" version="1.1" xmlns="http://www.w3.org/2000/svg" xmlns:xlink="http://www.w3.org/1999/xlink">
    <title>Artboard</title>
    <g id="Artboard" stroke="none" stroke-width="1" fill="none" fill-rule="evenodd">
        <g id="cart" transform="translate(2.000000, 3.000000)" fill="#006FB9" fill-rule="nonzero">
            <path d="M63.5672079,10.3432871 C63.3615842,10.0885545 63.0520396,9.94059406 62.7247525,9.94059406 L10.8150495,9.94059406 C10.5118416,9.94059406 10.2225743,10.0676436 10.0175842,10.2910099 C9.81322772,10.5143762 9.71089109,10.8134653 9.73750495,11.1157228 L11.9005149,35.9892277 C11.9493069,36.5484356 12.4169505,36.9771089 12.9777426,36.9771089 L57.3173861,36.9771089 C57.8255842,36.9771089 58.266297,36.6222574 58.3746535,36.1254653 L63.7820198,11.2519604 C63.8510891,10.9316436 63.772198,10.597703 63.5672079,10.3432871 Z M56.4454653,34.8137822 L13.9691089,34.8137822 L11.994297,12.1032871 L61.3826535,12.1032871 L56.4454653,34.8137822 Z" id="Shape"></path>
            <path d="M11.8891089,10.9021782 L10.8077624,1.16910891 C10.7472475,0.621306931 10.2849901,0.207207921 9.73338614,0.207207921 L1.08134653,0.207207921 C0.484435644,0.207207921 0,0.691643564 0,1.28887129 C0,1.88609901 0.484435644,2.37021782 1.08134653,2.37021782 L8.76514851,2.37021782 L9.7400396,11.1413861 C9.80118812,11.6945743 10.2694653,12.1032871 10.8128317,12.1032871 C10.8527525,12.1032871 10.8933069,12.1010693 10.9335446,12.0963168 C11.5272871,12.030099 11.9550099,11.4959208 11.8891089,10.9021782 Z" id="Path"></path>
            <path d="M15.1337822,45.5093861 L14.0524356,35.7763168 C13.9865347,35.1819406 13.449505,34.7542178 12.8586139,34.8207525 C12.2648713,34.8866535 11.8371485,35.4208317 11.9030495,36.0145743 L12.984396,45.7476436 C13.0455446,46.3008317 13.5138218,46.7095446 14.0571881,46.7095446 C14.0971089,46.7095446 14.1376634,46.7073267 14.1782178,46.7028911 C14.7719604,46.6373069 15.1996832,46.1031287 15.1337822,45.5093861 Z" id="Path"></path>
            <path d="M15.1404356,44.5468515 C12.1587327,44.5468515 9.73306931,46.9725149 9.73306931,49.9542178 C9.73306931,52.9359208 12.1587327,55.3615842 15.1404356,55.3615842 C18.1221386,55.3615842 20.547802,52.9359208 20.547802,49.9542178 C20.547802,46.9725149 18.1218218,44.5468515 15.1404356,44.5468515 Z M15.1404356,53.1982574 C13.3512871,53.1982574 11.8960792,51.7430495 11.8960792,49.953901 C11.8960792,48.1647525 13.3512871,46.7095446 15.1404356,46.7095446 C16.9295842,46.7095446 18.3847921,48.1647525 18.3847921,49.953901 C18.3847921,51.7433663 16.9295842,53.1982574 15.1404356,53.1982574 Z" id="Shape"></path>
            <path d="M51.909703,44.5468515 C48.928,44.5468515 46.5023366,46.9725149 46.5023366,49.9542178 C46.5023366,52.9359208 48.928,55.3615842 51.909703,55.3615842 C54.8914059,55.3615842 57.3170693,52.9359208 57.3170693,49.9542178 C57.3170693,46.9725149 54.8914059,44.5468515 51.909703,44.5468515 Z M51.909703,53.1982574 C50.1205545,53.1982574 48.6653465,51.7430495 48.6653465,49.953901 C48.6653465,48.1647525 50.1205545,46.7095446 51.909703,46.7095446 C53.6988515,46.7095446 55.1540594,48.1647525 55.1540594,49.953901 C55.1540594,51.7433663 53.6988515,53.1982574 51.909703,53.1982574 Z" id="Shape"></path>
            <path d="M47.584,48.8725545 L19.4661386,48.8725545 C18.8692277,48.8725545 18.3847921,49.3569901 18.3847921,49.953901 C18.3847921,50.5508119 18.8692277,51.0352475 19.4661386,51.0352475 L47.584,51.0352475 C48.1815446,51.0352475 48.6653465,50.5508119 48.6653465,49.953901 C48.6653465,49.3569901 48.1809109,48.8725545 47.584,48.8725545 Z" id="Path"></path>
        </g>
    </g>
</svg>