<?xml version="1.0" encoding="UTF-8"?>
<svg width="60px" height="60px" viewBox="0 0 60 60" version="1.1" xmlns="http://www.w3.org/2000/svg" xmlns:xlink="http://www.w3.org/1999/xlink">
    <title>Group 5</title>
    <g id="Desktop" stroke="none" stroke-width="1" fill="none" fill-rule="evenodd">
        <g id="[Desktop]-CDA---Home--Copy" transform="translate(-369.000000, -842.000000)">
            <g id="Group-5" transform="translate(369.000000, 842.000000)">
                <circle id="Oval-Copy" cx="30" cy="30" r="30"></circle>
                <g id="logo" transform="translate(5.000000, 21.000000)" stroke="#006FB9">
                    <path d="M49.4,7.6 L18.3,7.6 C18.4,7.1 18.5,6.6 18.5,6 C18.5,3 16.1,0.6 13.1,0.6 C10.5,0.6 8.4,2.4 7.8,4.8 C7.3,4.6 6.8,4.6 6.2,4.6 C3.2,4.6 0.8,7 0.8,10 C0.8,13 3.2,15.4 6.2,15.4 C6.7,15.4 7.3,15.3 7.8,15.2 C8.4,17.6 10.5,19.4 13.1,19.4 C16.1,19.4 18.5,17 18.5,14 C18.5,13.5 18.4,12.9 18.3,12.4 L39.4,12.4 L39.4,18.9 L41.9,18.9 L41.9,15.6 L44.3,15.6 L44.3,18.9 L46.8,18.9 L46.8,12.4 L49.3,12.4 L49.3,7.6 L49.4,7.6 Z M13.1,3.6 C14.4,3.6 15.5,4.7 15.5,6 C15.5,7.3 14.4,8.4 13.1,8.4 C11.8,8.4 10.7,7.3 10.7,6 C10.6,4.7 11.7,3.6 13.1,3.6 Z M3.8,10 C3.8,8.7 4.9,7.6 6.2,7.6 C7.5,7.6 8.6,8.7 8.6,10 C8.6,11.3 7.5,12.4 6.2,12.4 C4.9,12.4 3.8,11.3 3.8,10 Z M13.1,16.3 C11.8,16.3 10.7,15.2 10.7,13.9 C10.7,12.6 11.8,11.5 13.1,11.5 C14.4,11.5 15.5,12.6 15.5,13.9 C15.5,15.2 14.4,16.3 13.1,16.3 Z" id="XMLID_37_"></path>
                </g>
            </g>
        </g>
    </g>
</svg>