<?xml version="1.0" encoding="UTF-8"?>
<svg width="60px" height="60px" viewBox="0 0 60 60" version="1.1" xmlns="http://www.w3.org/2000/svg" xmlns:xlink="http://www.w3.org/1999/xlink">
    <title>Group</title>
    <g id="Desktop" stroke="none" stroke-width="1" fill="none" fill-rule="evenodd">
        <g id="[Desktop]-CDA---Home--Copy" transform="translate(-597.000000, -842.000000)">
            <g id="Group" transform="translate(597.000000, 842.000000)">
                <circle id="Oval-Copy-4" cx="30" cy="30" r="30"></circle>
                <g id="icon-" transform="translate(17.000000, 12.000000)" fill="#006FB9" fill-rule="nonzero">
                    <g id="lock">
                        <path d="M12.9421546,0 C7.61400358,0 3.27916809,4.25147326 3.27916809,9.47722595 L3.27916809,14.1177631 C3.27916809,14.4337742 3.54064142,14.6900209 3.86284882,14.6900209 L7.10224655,14.6900209 C7.42445395,14.6900209 7.68572506,14.4337742 7.68572506,14.1177631 L7.68572506,9.47722595 C7.68572506,6.63458044 10.0437035,4.32188159 12.9420872,4.32188159 C15.8404708,4.32188159 18.1984493,6.63458044 18.1984493,9.47722595 L18.1984493,14.1177631 C18.1984493,14.4337742 18.4599901,14.6900209 18.7822649,14.6900209 L22.0216626,14.6900209 C22.34387,14.6900209 22.6051411,14.4337742 22.6051411,14.1177631 L22.6051411,9.47722595 C22.6051411,4.25147326 18.270373,0 12.9421546,0 Z M21.4382515,13.5455053 L19.3656086,13.5455053 L19.3656086,9.47722595 C19.3656086,6.00348379 16.4840768,3.17736606 12.9422894,3.17736606 C9.40050206,3.17736606 6.51897026,6.00348379 6.51897026,9.47722595 L6.51897026,13.5455053 L4.44632733,13.5455053 L4.44632733,9.47722595 C4.44632733,4.88256992 8.25754208,1.14458165 12.942222,1.14458165 C17.6269693,1.14458165 21.4382515,4.88256992 21.4382515,9.47722595 L21.4382515,13.5455053 L21.4382515,13.5455053 Z" id="Shape"></path>
                        <path d="M23.3654292,13.5455053 L2.51908218,13.5455053 C1.13689331,13.5455053 0.0123355553,14.648437 0.0123355553,16.0040453 L0.0123355553,31.3903484 C0.0123355553,32.7459567 1.13689331,33.8488883 2.51908218,33.8488883 L23.3654292,33.8488883 C24.7476181,33.8488883 25.8721085,32.7459567 25.8721085,31.3902823 L25.8721085,16.0040453 C25.8721085,14.648437 24.7476181,13.5455053 23.3654292,13.5455053 Z M24.7051514,31.3902823 C24.7051514,32.11486 24.104147,32.7043067 23.3654292,32.7043067 L2.51908218,32.7043067 C1.78029701,32.7043067 1.17929257,32.11486 1.17929257,31.3902823 L1.17929257,16.0040453 C1.17929257,15.2794675 1.78029701,14.6900209 2.51908218,14.6900209 L23.3654292,14.6900209 C24.104147,14.6900209 24.7051514,15.2794675 24.7051514,16.0040453 L24.7051514,31.3902823 Z" id="Shape"></path>
                        <path d="M14.9044516,24.4466324 C15.5861427,23.8832996 15.9828353,23.0597535 15.9828353,22.1747241 C15.9828353,20.5303424 14.618779,19.192518 12.9421546,19.192518 C11.2654628,19.192518 9.9014065,20.5303424 9.9014065,22.1747241 C9.9014065,23.0597535 10.2980991,23.8832996 10.979925,24.4467646 L10.3239835,27.5118079 C10.2879206,27.6806556 10.3312635,27.8563129 10.4420813,27.9901879 C10.5529665,28.1239306 10.719328,28.2017434 10.8950591,28.2017434 L14.9892501,28.2017434 C15.1650486,28.2017434 15.3314101,28.1239967 15.4421605,27.9901879 C15.5529108,27.8562468 15.5962538,27.6805895 15.5601908,27.5119401 L14.9044516,24.4466324 Z M13.9432894,23.7219885 C13.7383709,23.8499796 13.6355746,24.0891035 13.6855235,24.3223435 L14.2706198,27.0570957 L11.6137568,27.0570957 L12.1989879,24.3225418 C12.2488694,24.0892357 12.1462754,23.8501118 11.941222,23.7221868 C11.3946828,23.3810535 11.0684309,22.8025152 11.0684309,22.1747902 C11.0684309,21.1615052 11.9089339,20.3371658 12.9421546,20.3371658 C13.9753079,20.3371658 14.8158109,21.1615052 14.8158109,22.1747902 C14.8159457,22.8026474 14.4896938,23.3810535 13.9432894,23.7219885 Z" id="Shape"></path>
                    </g>
                </g>
            </g>
        </g>
    </g>
</svg>