<?xml version="1.0" encoding="UTF-8"?>
<svg width="60px" height="60px" viewBox="0 0 60 60" version="1.1" xmlns="http://www.w3.org/2000/svg" xmlns:xlink="http://www.w3.org/1999/xlink">
    <title>Group 4</title>
    <g id="Desktop" stroke="none" stroke-width="1" fill="none" fill-rule="evenodd">
        <g id="[Desktop]-CDA---Home--Copy" transform="translate(-445.000000, -842.000000)">
            <g id="Group-4" transform="translate(445.000000, 842.000000)">
                <circle id="Oval-Copy-2" cx="30" cy="30" r="30"></circle>
                <g id="shop" transform="translate(11.000000, 14.000000)" fill="#006FB9" fill-rule="nonzero">
                    <path d="M36.9269234,30.054947 L36.2819261,30.054947 L36.2819261,13.3703186 C37.7383861,12.4407161 38.705882,10.8197419 38.705882,8.97778379 C38.705882,8.87992695 38.6801033,8.78371981 38.6311917,8.69876058 L34.1321621,0.889109988 C33.8161649,0.340736762 33.2243127,0 32.5875555,0 L6.11832646,0 C5.48156934,0 4.8897171,0.340661776 4.57371986,0.889109988 L0.0746902567,8.69876058 C0.0257787222,8.78371981 0,8.88000194 0,8.97778379 C0,10.8197419 0.967495855,12.4407161 2.42395586,13.3703186 L2.42395586,30.054947 L1.77895862,30.054947 C1.46583409,30.054947 1.21197793,30.3067503 1.21197793,30.6173427 C1.21197793,30.927935 1.46583409,31.1797383 1.77895862,31.1797383 L36.9269234,31.1797383 C37.2401235,31.1797383 37.4939041,30.927935 37.4939041,30.6173427 C37.4939041,30.3067503 37.2400479,30.054947 36.9269234,30.054947 Z M1.17304526,9.54017942 L2.99070976,9.54017942 C3.3038343,9.54017942 3.55769045,9.28837615 3.55769045,8.97778379 C3.55769045,8.66719144 3.3038343,8.41538817 2.99070976,8.41538817 L1.54400182,8.41538817 L5.55830073,1.44715642 C5.67290643,1.24829333 5.88745192,1.12479125 6.11832646,1.12479125 L32.5875555,1.12479125 C32.8184301,1.12479125 33.0330512,1.24829333 33.1475813,1.44715642 L37.1618046,8.41538817 L35.7147943,8.41538817 C35.4015941,8.41538817 35.1478136,8.66719144 35.1478136,8.97778379 C35.1478136,9.28837615 35.4015941,9.54017942 35.7147943,9.54017942 L37.5327611,9.54017942 C37.2555454,11.5336094 35.5270102,13.0738986 33.4423356,13.0738986 C31.3577366,13.0738986 29.630033,11.5334595 29.3527417,9.54017942 L36.0203261,9.54017942 C36.3335262,9.54017942 36.5873068,9.28837615 36.5873068,8.97778379 C36.5873068,8.66719144 36.3335262,8.41538817 36.0203261,8.41538817 L2.6858583,8.41538817 C2.37273376,8.41538817 2.1188776,8.66719144 2.1188776,8.97778379 C2.1188776,9.28837615 2.37273376,9.54017942 2.6858583,9.54017942 L9.35306471,9.54017942 C9.07577335,11.5334595 7.34799419,13.0738986 5.26347077,13.0738986 C3.17879616,13.0738986 1.45026102,11.5336094 1.17304526,9.54017942 Z M28.139025,9.54017942 C27.8617337,11.5334595 26.1339545,13.0738986 24.0494311,13.0738986 C21.9648321,13.0738986 20.2371285,11.5334595 19.9598371,9.54017942 L28.139025,9.54017942 Z M18.7460449,9.54017942 C18.4687535,11.5334595 16.7409743,13.0738986 14.6564509,13.0738986 C12.5719275,13.0738986 10.8441483,11.5334595 10.566857,9.54017942 L18.7460449,9.54017942 Z M32.1178687,30.0622423 L25.9798869,30.0622423 L25.9798869,16.7533907 L32.1178687,16.7533907 L32.1178687,30.0622423 Z M35.1479648,30.055022 L33.2519057,30.055022 L33.2519057,16.1909951 C33.2519057,15.8804027 32.9981252,15.6285995 32.684925,15.6285995 L25.4129818,15.6285995 C25.0997817,15.6285995 24.8460012,15.8804027 24.8460012,16.1909951 L24.8460012,30.055022 L3.55791725,30.055022 L3.55791725,13.9157673 C4.09322262,14.0982085 4.6665535,14.1986898 5.26347077,14.1986898 C7.31178302,14.1986898 9.09051485,13.0322063 9.95996085,11.3336966 C10.8294068,13.0321313 12.6081387,14.1986898 14.6564509,14.1986898 C16.7047632,14.1986898 18.483495,13.0322063 19.352941,11.3336966 C20.222387,13.0321313 22.0011188,14.1986898 24.0494311,14.1986898 C26.0977433,14.1986898 27.8764752,13.0322063 28.7459212,11.3336966 C29.6153671,13.0321313 31.394099,14.1986898 33.4424112,14.1986898 C34.0393285,14.1986898 34.6126594,14.0982085 35.1479648,13.9158423 L35.1479648,30.055022 Z" id="Shape"></path>
                    <path d="M23.0612782,16.1274508 L5.96813332,16.1274508 C5.64101673,16.1274508 5.37581694,16.3648252 5.37581694,16.6576198 L5.37581694,27.4240791 C5.37581694,27.7168738 5.64101673,27.9542481 5.96813332,27.9542481 L23.0612782,27.9542481 C23.3884737,27.9542481 23.6535946,27.7168738 23.6535946,27.4240791 L23.6535946,16.6576198 C23.6535946,16.3647545 23.3884737,16.1274508 23.0612782,16.1274508 Z M22.4689618,26.8939102 L6.56044969,26.8939102 L6.56044969,17.1877888 L22.4689618,17.1877888 L22.4689618,26.8939102 Z" id="Shape"></path>
                </g>
            </g>
        </g>
    </g>
</svg>