<?xml version="1.0" encoding="UTF-8"?>
<svg width="68px" height="61px" viewBox="0 0 68 61" version="1.1" xmlns="http://www.w3.org/2000/svg" xmlns:xlink="http://www.w3.org/1999/xlink">
    <title>Artboard</title>
    <g id="Artboard" stroke="none" stroke-width="1" fill="none" fill-rule="evenodd">
        <g id="profile" transform="translate(11.000000, 3.000000)" fill="#006FB9" fill-rule="nonzero">
            <path d="M22.5301377,27.9525424 C30.2494174,27.9525424 36.5064089,21.6951801 36.5064089,13.9762712 C36.5064089,6.2577331 30.2494174,0 22.5301377,0 C14.8115996,0 8.55386655,6.2577331 8.55386655,13.9762712 C8.55979875,21.6925847 14.8138242,27.9466102 22.5301377,27.9525424 Z M22.5301377,2.36880294 C28.9409957,2.36880294 34.1376059,7.56541311 34.1376059,13.9762712 C34.1376059,20.3871293 28.9409957,25.5837394 22.5301377,25.5837394 C16.1200212,25.5837394 10.9226695,20.3871293 10.9226695,13.9762712 C10.9334216,7.570233 16.1240996,2.3791843 22.5301377,2.36880294 Z" id="Shape"></path>
            <path d="M22.5301377,31.4466102 C16.4544492,31.4466102 10.8043962,33.8035487 6.61181142,38.0914194 C2.3595339,42.4382416 0.0259534373,48.3719279 0.0259534373,54.8157839 C0.0278072271,55.4690678 0.55725638,55.9981462 1.21054023,56 L43.850106,56 C44.5037606,55.9981462 45.0324682,55.4690678 45.034322,54.8157839 C45.034322,48.3841632 42.7011123,42.4382416 38.4492055,38.1032839 C34.25625,33.8154131 28.6065678,31.4466102 22.5301377,31.4466102 L22.5301377,31.4466102 Z M2.41885593,53.6311971 C2.67950214,48.2777542 4.75206565,43.385911 8.29359108,39.7613347 C12.0364407,35.9354343 17.0940148,33.8276484 22.5186441,33.8276484 C27.9432733,33.8276484 33.0008475,35.9354343 36.7433263,39.7613347 C40.2967161,43.385911 42.357786,48.2777542 42.6184322,53.6311971 L2.41885593,53.6311971 Z" id="Shape"></path>
        </g>
    </g>
</svg>