<?xml version="1.0" encoding="UTF-8"?>
<svg width="60px" height="60px" viewBox="0 0 60 60" version="1.1" xmlns="http://www.w3.org/2000/svg" xmlns:xlink="http://www.w3.org/1999/xlink">
    <title>Group 3</title>
    <g id="Desktop" stroke="none" stroke-width="1" fill="none" fill-rule="evenodd">
        <g id="[Desktop]-CDA---Home--Copy" transform="translate(-521.000000, -842.000000)">
            <g id="Group-3" transform="translate(521.000000, 842.000000)">
                <circle id="Oval-Copy-3" cx="30" cy="30" r="30"></circle>
                <g id="best" transform="translate(19.000000, 12.000000)" fill="#006FB9" fill-rule="nonzero">
                    <path d="M22.5894737,14.3066667 C22.5894737,10.7719141 20.966177,7.61075547 18.4282695,5.5320974 L18.4282695,0.596087826 C18.4282695,0.267062435 18.1625733,0 17.8338317,0 L4.75564201,0 C4.4269004,0 4.16120417,0.267062435 4.16120417,0.596087826 L4.16120417,5.5320974 C1.62329666,7.61075547 0,10.7719141 0,14.3066667 C0,17.8414193 1.62329666,21.0025779 4.16120417,23.0812359 L4.16120417,35.1705788 C4.16120417,35.4113751 4.30568607,35.628979 4.527982,35.7213995 C4.75027792,35.8131913 5.00594262,35.7625451 5.17592133,35.5920247 L11.2947368,29.4562251 L17.4135524,35.5920247 C17.5271037,35.7058913 17.6792486,35.7666667 17.8338317,35.7666667 C17.9105311,35.7666667 17.9877878,35.7517872 18.0614917,35.7213995 C18.2837876,35.628979 18.4282695,35.411445 18.4282695,35.1705788 L18.4282695,23.0812359 C20.966177,21.0025779 22.5894737,17.8414193 22.5894737,14.3066667 Z M5.3501495,1.19224551 L17.2393938,1.19224551 L17.2393938,4.68033379 C16.5828163,4.27111283 15.8817934,3.92720794 15.1449636,3.6585388 C15.1279657,3.65232155 15.1107588,3.64652344 15.0936913,3.64037604 C15.0062637,3.60901035 14.9184182,3.57869251 14.8300153,3.54935267 C14.7884959,3.53559089 14.7469765,3.52196882 14.7053178,3.50869603 C14.6362117,3.48669115 14.5666876,3.4655944 14.4970242,3.4449168 C14.4226934,3.4227722 14.3481535,3.4016056 14.2734047,3.38106771 C14.2115436,3.36409251 14.1496825,3.34711732 14.0873338,3.33118997 C14.0280502,3.31603105 13.9685577,3.30164056 13.9089954,3.28745964 C13.8598827,3.2757237 13.8106307,3.2644069 13.761309,3.25336953 C13.7007019,3.23974746 13.6400947,3.22612539 13.5792785,3.21355117 C13.5099635,3.19923053 13.4402304,3.18609746 13.3704973,3.17303424 C13.2899664,3.15801504 13.2092265,3.14390397 13.128208,3.13063118 C13.0701784,3.12106081 13.0120791,3.1117 12.9537708,3.10310762 C12.899294,3.09507409 12.8447476,3.08731999 12.7900618,3.08005488 C12.7203288,3.07076393 12.6503867,3.06245098 12.5802357,3.05441745 C12.53795,3.04959733 12.4957339,3.0441485 12.4533786,3.03981738 C12.3447037,3.0286403 12.2354715,3.01941921 12.1258909,3.01138568 C12.0875064,3.00859141 12.0489825,3.00642585 12.0105283,3.00405072 C11.9267929,2.9987416 11.8427788,2.99441048 11.7585558,2.9909875 C11.7218432,2.98952051 11.6852002,2.9879138 11.6484876,2.98679609 C11.5309654,2.98316354 11.4131646,2.98071855 11.2947368,2.98071855 C11.1763091,2.98071855 11.0585082,2.98316354 10.9409861,2.98679609 C10.9042735,2.9879138 10.8675608,2.98952051 10.8309179,2.9909875 C10.7466948,2.99441048 10.6627504,2.99881146 10.5789454,3.00405072 C10.5404912,3.00642585 10.5019673,3.00859141 10.4635828,3.01138568 C10.3540022,3.01941921 10.2448397,3.02871016 10.1361648,3.03981738 C10.0937397,3.0441485 10.0515237,3.04959733 10.009238,3.05441745 C9.93915664,3.06245098 9.86921459,3.07076393 9.79948152,3.08005488 C9.74479574,3.08731999 9.6902493,3.09500423 9.63577252,3.10310762 C9.57746425,3.11176986 9.51936497,3.12113066 9.46140501,3.13063118 C9.38017748,3.14397383 9.29922861,3.1580849 9.21848872,3.17317396 C9.14896464,3.18616732 9.07944056,3.19930039 9.01033447,3.21355117 C8.94944865,3.22612539 8.88884149,3.23981732 8.82816466,3.25343939 C8.77884297,3.26447676 8.72966061,3.27579355 8.68061757,3.28745964 C8.62105536,3.30171042 8.56149315,3.31603105 8.50220959,3.33125983 C8.44000017,3.34718717 8.37813907,3.36416237 8.31627796,3.38113757 C8.24145946,3.40167546 8.16684996,3.42291191 8.0925191,3.44505651 C8.0228557,3.46573411 7.95340128,3.48683086 7.88436485,3.50883574 C7.84270613,3.52210853 7.80111708,3.5357306 7.75952803,3.54956224 C7.67119483,3.57883223 7.58334928,3.60915007 7.4959217,3.64051576 C7.47885417,3.64666315 7.46164731,3.65246126 7.44464944,3.65867852 C6.7078196,3.92741751 6.00679676,4.2713224 5.3501495,4.6804735 L5.3501495,1.19224551 L5.3501495,1.19224551 Z M17.2393242,33.7315294 L11.7150162,28.1918874 C11.5990963,28.0756458 11.4468817,28.0172455 11.2947368,28.0172455 C11.1425223,28.0172455 10.9903774,28.0756458 10.8744575,28.1918874 L5.3501495,33.7315294 L5.3501495,23.9329995 C6.0067271,24.3421507 6.70768028,24.6860555 7.44444045,24.9547945 C7.46164731,24.9610816 7.47906316,24.9669496 7.49633968,24.9731669 C7.5834886,25.0044627 7.67112517,25.0347107 7.75924938,25.0639108 C7.80083843,25.0777424 7.84249714,25.0913645 7.88422552,25.1047072 C7.95326196,25.126712 8.02271637,25.1477389 8.09237978,25.1684165 C8.16671063,25.1905611 8.24132014,25.2117976 8.31613863,25.2323355 C8.37799974,25.2493107 8.43979118,25.266216 8.50207026,25.2822132 C8.56135382,25.297442 8.62091603,25.3117626 8.68047824,25.3260134 C8.72952128,25.3376795 8.77870364,25.3489963 8.82802533,25.3600337 C8.88870216,25.3736557 8.94930932,25.3872778 9.01019514,25.3999219 C9.07930124,25.4142425 9.14882531,25.4273057 9.21834939,25.4402991 C9.29908928,25.4553882 9.38010782,25.4694992 9.46126569,25.4828419 C9.5192953,25.4924122 9.57732492,25.5017032 9.63563319,25.5103654 C9.69010997,25.518399 9.74465642,25.5261531 9.79934219,25.5334182 C9.8690056,25.5427091 9.93901732,25.5510221 10.0090987,25.5590556 C10.0514541,25.5638757 10.0936004,25.5693245 10.1360254,25.5736557 C10.2447003,25.5848327 10.3539326,25.5940538 10.4634434,25.6020874 C10.501828,25.6048816 10.5403518,25.6070472 10.578806,25.6094223 C10.6625414,25.6147314 10.7465555,25.6190626 10.8307786,25.6224855 C10.8674912,25.6239525 10.9041341,25.6255592 10.9408467,25.626677 C11.0583689,25.6303095 11.1761697,25.6327545 11.2945975,25.6327545 C11.4130253,25.6327545 11.5308261,25.6303095 11.6483483,25.626677 C11.6850609,25.6255592 11.7217735,25.6239525 11.7584165,25.6224855 C11.8426395,25.6190626 11.9265839,25.6146616 12.010389,25.6094223 C12.0488432,25.6070472 12.0873671,25.6048816 12.1257516,25.6020874 C12.2353321,25.5940538 12.3444947,25.5847629 12.4532393,25.5736557 C12.4956643,25.5693245 12.5378106,25.5638757 12.5800963,25.5590556 C12.6501777,25.5510221 12.7201894,25.5427091 12.7899225,25.5334182 C12.8446083,25.5261531 12.8991547,25.5184688 12.9536315,25.5103654 C13.0119398,25.5017032 13.0700391,25.4923424 13.1280687,25.4828419 C13.2090175,25.4695691 13.2898271,25.455458 13.370358,25.4404388 C13.4400911,25.4273756 13.5098241,25.4142425 13.5791392,25.3999219 C13.640025,25.3873477 13.7005625,25.3736557 13.7611697,25.3601035 C13.8104914,25.3490661 13.8597434,25.3377493 13.9088561,25.3260134 C13.9684183,25.3118325 14.0279109,25.297442 14.0871944,25.2822831 C14.1494735,25.2663557 14.2113346,25.2493805 14.2732654,25.2324053 C14.3480142,25.2118674 14.4225541,25.190631 14.4968849,25.1685562 C14.5665483,25.1478786 14.6360027,25.1267819 14.7051088,25.104777 C14.7468372,25.0914344 14.7884263,25.0778822 14.8300153,25.0640505 C14.9182092,25.0348504 15.0058458,25.0046024 15.0930643,24.9733066 C15.1103409,24.9670893 15.127687,24.9612214 15.1449636,24.9549342 C15.8817934,24.6861952 16.5827466,24.3423602 17.2393242,23.9331393 L17.2393242,33.7315294 L17.2393242,33.7315294 Z M17.5349757,22.272574 C17.5126137,22.2856372 17.4908091,22.299888 17.4699797,22.3160249 C16.5920118,22.9976872 15.6310051,23.5211939 14.6144767,23.8782318 C14.5927418,23.8858462 14.5712158,23.8938099 14.5494111,23.9012147 C14.5243323,23.9098071 14.4990445,23.9179105 14.473896,23.9262933 C14.4215788,23.9436876 14.3692616,23.9610121 14.316596,23.977638 C14.2992498,23.9830868 14.2819036,23.988396 14.2645575,23.9937749 C14.2013728,24.013265 14.1379791,24.0323359 14.074237,24.0506383 C14.0644145,24.0534326 14.0546616,24.0562967 14.0448391,24.059091 C13.6502656,24.1711413 13.2460785,24.2597895 12.8336711,24.3232195 C12.8324868,24.323429 12.8313722,24.3235687 12.830188,24.3237783 C12.5849031,24.3614311 12.3366924,24.3900724 12.0860435,24.4096323 C12.0704389,24.4108199 12.0548343,24.4118677 12.03916,24.4129854 C11.9759753,24.417596 11.9125816,24.4216477 11.8490486,24.4250706 C11.8260596,24.4263281 11.8030707,24.4275156 11.7800818,24.4286333 C11.7212162,24.4314276 11.6622113,24.4335932 11.6030671,24.4354094 C11.5803568,24.436108 11.5576465,24.4369463 11.5348666,24.4375051 C11.4549627,24.4393913 11.3749194,24.4405788 11.2946672,24.4405788 C11.2143453,24.4405788 11.134302,24.4393913 11.0543981,24.4375051 C11.0316182,24.4369463 11.0089079,24.436108 10.9861976,24.4354094 C10.9270534,24.4335932 10.8680485,24.4314276 10.8091829,24.4286333 C10.786194,24.4275156 10.7632051,24.4263281 10.7402161,24.4250706 C10.6766831,24.4215778 10.6133591,24.417596 10.5501047,24.4129854 C10.5345001,24.4118677 10.5188258,24.4108199 10.5032212,24.4096323 C10.2525026,24.3900724 10.0043616,24.3614311 9.75907674,24.3237783 C9.75789246,24.3235687 9.75677785,24.323429 9.75559357,24.3232195 C9.34318621,24.2597895 8.93892948,24.1710714 8.54435595,24.0590212 C8.53460307,24.0562269 8.5248502,24.0534326 8.51509732,24.0506383 C8.4513553,24.0323359 8.38789194,24.013265 8.32470723,23.9937051 C8.30736105,23.9883261 8.29001486,23.9830868 8.27273833,23.977638 C8.2200728,23.961082 8.16768592,23.9437575 8.11543836,23.9262933 C8.09028988,23.9179105 8.06500206,23.9098071 8.03992323,23.9012147 C8.01811859,23.89374 7.9965926,23.8857764 7.97485761,23.8782318 C6.95832921,23.5211939 5.99732254,22.9976174 5.11935464,22.3160249 C5.09831629,22.2996085 5.07616333,22.2850783 5.05352273,22.2718754 C2.70161651,20.414803 1.18880601,17.5346083 1.18880601,14.3066667 C1.18880601,11.0799824 2.70050189,8.20076576 5.05087552,6.3436235 C5.07449141,6.32993158 5.09748033,6.31456309 5.11935464,6.29730846 C5.99732254,5.61564609 6.95832921,5.09213945 7.97485761,4.7351015 C7.9965926,4.72748711 8.01811859,4.71952344 8.03992323,4.71211862 C8.06500206,4.70352624 8.09028988,4.69542285 8.11543836,4.68704004 C8.16775558,4.6696457 8.2200728,4.65232122 8.27273833,4.63569531 C8.29001486,4.63024648 8.30743071,4.62493737 8.32470723,4.61962826 C8.38796161,4.60006836 8.4513553,4.58099746 8.51509732,4.56269499 C8.5248502,4.55990072 8.53460307,4.55710645 8.54435595,4.55431217 C8.93892948,4.44226191 9.34311655,4.35361367 9.75559357,4.29011387 C9.75677785,4.2899043 9.75789246,4.28976458 9.75907674,4.28955501 C10.0043616,4.25190221 10.2525723,4.22326094 10.5032212,4.20370104 C10.5188258,4.20251348 10.5344304,4.20146563 10.5501047,4.20034792 C10.6132894,4.19573737 10.6766831,4.19168568 10.7402161,4.1882627 C10.7632051,4.18700527 10.786194,4.18581771 10.8091829,4.1847 C10.8680485,4.18190573 10.9270534,4.17974017 10.9861976,4.17792389 C11.0089079,4.17722533 11.0316182,4.17638704 11.0543981,4.17582819 C11.134302,4.17394206 11.2143453,4.17275449 11.2946672,4.17275449 C11.3749891,4.17275449 11.4550323,4.17394206 11.5348666,4.17582819 C11.5576465,4.17638704 11.5803568,4.17722533 11.6030671,4.17792389 C11.6622113,4.17974017 11.7212162,4.18190573 11.7800818,4.1847 C11.8030707,4.18581771 11.8260596,4.18700527 11.8490486,4.1882627 C11.9125816,4.19175553 11.9759056,4.19573737 12.03916,4.20034792 C12.0547646,4.20146563 12.0704389,4.20251348 12.0860435,4.20370104 C12.3367621,4.22326094 12.5849031,4.25190221 12.830188,4.28955501 C12.8313722,4.28976458 12.8324868,4.2899043 12.8336711,4.29011387 C13.2460785,4.35354382 13.6503352,4.44226191 14.0448391,4.55424232 C14.0546616,4.55703659 14.0644145,4.55983086 14.074237,4.56269499 C14.1379791,4.58099746 14.2013031,4.60006836 14.2645575,4.6195584 C14.2819036,4.62493737 14.2993195,4.63017663 14.316596,4.63569531 C14.3692616,4.65225137 14.4216484,4.66957585 14.473896,4.68704004 C14.4990445,4.69542285 14.5243323,4.70352624 14.5494111,4.71211862 C14.5712158,4.71959329 14.5927418,4.72755697 14.6144767,4.7351015 C15.6310051,5.09213945 16.5920118,5.61571595 17.4699797,6.29730846 C17.4910181,6.31379466 17.5131014,6.32818516 17.535742,6.34138809 C19.8877178,8.19846048 21.4005284,11.0786551 21.4005284,14.3065968 C21.4005284,17.5349576 19.8874392,20.4155016 17.5349757,22.272574 Z" id="Shape"></path>
                    <path d="M18.7945877,11.4623683 C18.7256233,11.2493585 18.5478499,11.0930665 18.334644,11.0586257 L13.9000837,10.3380559 L11.813707,5.95558546 C11.6179458,5.54462941 10.9715403,5.54462941 10.7757113,5.95558546 L8.68933454,10.3380559 L4.25477424,11.0586257 C4.04163623,11.0929958 3.86379496,11.2493585 3.79489844,11.4623683 C3.72654494,11.6760145 3.77691068,11.9113719 3.9269897,12.0736751 L7.06989293,15.469455 L6.09563502,19.9708063 C6.04757715,20.1923025 6.12346514,20.4234166 6.29139617,20.568252 C6.45939508,20.7137237 6.69106388,20.7474574 6.89205166,20.6569353 L11.2947091,18.6606408 L15.6974345,20.6569353 C15.7715577,20.6907396 15.8503644,20.7070175 15.9285603,20.7070175 C16.0611946,20.7070175 16.1921319,20.6593398 16.29809,20.5681812 C16.4660889,20.4233459 16.5419769,20.1922318 16.4938511,19.9707356 L15.5195932,15.4693842 L18.6624965,12.0736044 C18.8125076,11.9113011 18.8629412,11.6759438 18.7945877,11.4623683 Z M14.4689043,14.8653616 C14.3339621,15.0120356 14.2777589,15.2190341 14.321201,15.4169097 L15.1124589,19.0752036 L11.5259028,17.4494131 C11.4517796,17.4162452 11.3735838,17.399343 11.294777,17.399343 C11.2159703,17.399343 11.1377744,17.4162452 11.0636512,17.4494131 L7.47709514,19.0752036 L8.26835303,15.4169097 C8.31179517,15.2189634 8.2555919,15.0119649 8.12064975,14.8653616 L5.53495987,12.0718364 L9.16441509,11.4822407 C9.35033389,11.4520431 9.5107983,11.3295554 9.59360988,11.1539567 L11.2947091,7.58137597 L12.9958763,11.1539567 C13.0786879,11.3295554 13.2391523,11.4521138 13.4250711,11.4822407 L17.0545263,12.0718364 L14.4689043,14.8653616 Z" id="Shape"></path>
                </g>
            </g>
        </g>
    </g>
</svg>