<?xml version="1.0" encoding="UTF-8"?>
<svg width="55px" height="48px" viewBox="0 0 55 48" version="1.1" xmlns="http://www.w3.org/2000/svg" xmlns:xlink="http://www.w3.org/1999/xlink">
    <title>Shape</title>
    <g id="Page-1" stroke="none" stroke-width="1" fill="none" fill-rule="evenodd">
        <g id="Artboard" transform="translate(-7.000000, -7.000000)" fill="#006FB9" fill-rule="nonzero">
            <path d="M12.1748431,31.778814 C11.9831671,31.9596325 11.7242584,32.0707127 11.4398765,32.0707127 C11.0878442,32.0707127 10.7750658,31.9003341 10.5800491,31.6380846 L7.24931412,27.6688475 C6.87013817,27.2161749 6.9302718,26.5413419 7.38336208,26.162166 C7.83603458,25.7834076 8.51086754,25.8431236 8.8900436,26.2962138 L10.5249266,28.2447104 C11.1563297,22.7182628 13.6652384,17.7618319 17.3976995,14.0293708 C21.7406839,9.68638639 27.7406839,7 34.3674934,7 C40.0492864,7 45.2717251,8.97772829 49.3850324,12.28299 C53.5772651,15.6513084 56.6140134,20.3993597 57.807499,25.8381125 C57.9319422,26.4160635 57.5648766,26.9856626 56.9869256,27.1105234 C56.4089746,27.2353842 55.8393753,26.8683184 55.7145146,26.2903674 C54.6283509,21.3389476 51.8630391,17.0160078 48.0458064,13.9483575 C44.3037406,10.9420935 39.5477551,9.1426782 34.367911,9.1426782 C28.3319979,9.1426782 22.8681894,11.5889476 18.9127329,15.5444042 C15.4905447,18.9665924 13.1983676,23.5192094 12.6425491,28.5938197 L14.7701939,26.8086025 C15.2228665,26.4294265 15.8976995,26.4895602 16.2764579,26.9426503 C16.6556337,27.3953229 16.5959177,28.0701559 16.1428276,28.4493318 L12.1748431,31.778814 Z M53.9652105,35.1897271 L56.0924378,33.4045101 C55.5370369,38.4791203 53.2444422,43.0317372 49.822254,46.4539254 C45.867215,50.4089644 40.402989,52.8552339 34.3674934,52.8552339 C29.1876493,52.8552339 24.4312463,51.0562361 20.6891805,48.0495546 C16.8719478,44.9827394 14.1066359,40.659382 13.0204722,35.7079621 C12.8956115,35.1300111 12.3260123,34.7629455 11.748479,34.8878063 C11.170528,35.0122494 10.8030447,35.5822661 10.9279055,36.1597996 C12.1209734,41.5989699 15.1577217,46.3470212 19.3499545,49.7153396 C23.4636794,53.0206013 28.6861182,54.9983296 34.367911,54.9983296 C40.9947207,54.9983296 46.994303,52.3119432 51.3372874,47.9689588 C55.0697485,44.2364977 57.5790747,39.2800668 58.2100603,33.7536191 L59.8453609,35.7021158 C60.2241193,36.1547884 60.8989523,36.214922 61.3520425,35.8357461 C61.8047151,35.4569877 61.8648487,34.7821548 61.4860903,34.3294822 L58.1553553,30.360245 C57.959921,30.097578 57.6475602,29.9276169 57.2955279,29.9276169 C57.0107284,29.9276169 56.7522373,30.0386971 56.5605613,30.2195156 L52.592577,33.5489978 C52.1394868,33.9281737 52.0793532,34.6030067 52.458529,35.0560969 C52.8377051,35.5087695 53.5121204,35.5689031 53.9652105,35.1897271 Z" id="Shape"></path>
        </g>
    </g>
</svg>