<?xml version="1.0" encoding="UTF-8"?>
<svg width="64px" height="41px" viewBox="0 0 64 41" version="1.1" xmlns="http://www.w3.org/2000/svg" xmlns:xlink="http://www.w3.org/1999/xlink">
    <title>Shape</title>
    <g id="Page-1" stroke="none" stroke-width="1" fill="none" fill-rule="evenodd">
        <g id="Artboard" transform="translate(-2.000000, -10.000000)" fill="#006FB9" fill-rule="nonzero">
            <path d="M61.51975,27.162625 L59.862375,20.53325 C60.3155,20.437 60.6555,20.035 60.6555,19.553375 L60.6555,18.4845 C60.6555,16.16375 58.767375,14.27575 56.44675,14.27575 L48.89775,14.27575 L48.89775,12.071 C48.89775,10.929 47.96875,10 46.82675,10 L8.3465,10 C7.2045,10 6.2755,10.929 6.2755,12.071 L6.2755,30.24225 C6.2755,30.795625 6.724125,31.244375 7.277625,31.244375 C7.831,31.244375 8.27975,30.79575 8.27975,30.24225 L8.27975,12.071 C8.27975,12.034125 8.309625,12.00425 8.3465,12.00425 L46.826625,12.00425 C46.8635,12.00425 46.893375,12.034125 46.893375,12.071 L46.893375,30.2425 C46.893375,30.795875 47.342,31.244625 47.8955,31.244625 C48.448875,31.244625 48.897625,30.796 48.897625,30.2425 L48.897625,29.1065 L60.71875,29.1065 C60.71975,29.1065 60.7205,29.10675 60.721375,29.10675 C60.722375,29.10675 60.72325,29.106625 60.724125,29.106625 C62.17875,29.107625 63.413875,30.062375 63.838125,31.378 L60.722125,31.378 C60.16875,31.378 59.72,31.826625 59.72,32.380125 L59.72,34.517875 C59.72,36.24925 61.1285,37.65775 62.859875,37.65775 L63.995625,37.65775 L63.995625,42.066875 L61.375375,42.066875 C60.514625,39.5815 58.152,37.79125 55.377625,37.79125 C52.60325,37.79125 50.2405,39.5815 49.379875,42.066875 L48.897375,42.066875 L48.897375,34.51775 C48.897375,33.964375 48.44875,33.515625 47.89525,33.515625 C47.341875,33.515625 46.893125,33.96425 46.893125,34.51775 L46.893125,42.066625 L26.102125,42.066625 C25.241375,39.58125 22.87875,37.791 20.104375,37.791 C17.33,37.791 14.96725,39.58125 14.106625,42.066625 L8.3465,42.066625 C8.309625,42.066625 8.27975,42.03675 8.27975,41.999875 L8.27975,39.79525 L12.622125,39.79525 C13.1755,39.79525 13.62425,39.346625 13.62425,38.793125 C13.62425,38.239625 13.175625,37.791 12.622125,37.791 L3.002125,37.791 C2.44875,37.791 2,38.239625 2,38.793125 C2,39.346625 2.448625,39.79525 3.002125,39.79525 L6.275625,39.79525 L6.275625,41.999875 C6.275625,43.141875 7.204625,44.070875 8.346625,44.070875 L13.759625,44.070875 C13.759375,44.093125 13.757875,44.11525 13.757875,44.137625 C13.757875,47.637125 16.605,50.484125 20.104375,50.484125 C23.60375,50.484125 26.450875,47.637125 26.450875,44.137625 C26.450875,44.115125 26.449375,44.093125 26.449125,44.070875 L49.032875,44.070875 C49.032625,44.093125 49.031125,44.11525 49.031125,44.137625 C49.031125,47.637125 51.87825,50.484125 55.377625,50.484125 C58.877,50.484125 61.724125,47.637125 61.724125,44.137625 C61.724125,44.115125 61.722625,44.093125 61.722375,44.070875 L64.99775,44.070875 C65.551125,44.070875 65.999875,43.62225 65.999875,43.06875 L65.999875,32.379875 C65.999875,29.740875 64.052875,27.54825 61.51975,27.162625 Z M48.89775,16.279875 L56.44675,16.279875 C57.662375,16.279875 58.651375,17.268875 58.651375,18.4845 L58.651375,18.55125 L48.89775,18.55125 L48.89775,16.279875 Z M48.89775,27.102375 L48.89775,20.555375 L57.802125,20.555375 L59.438875,27.102375 L48.89775,27.102375 Z M20.104375,48.48025 C17.71,48.48025 15.762,46.532375 15.762,44.137875 C15.762,41.743375 17.71,39.7955 20.104375,39.7955 C22.49875,39.7955 24.44675,41.743375 24.44675,44.137875 C24.44675,46.532375 22.49875,48.48025 20.104375,48.48025 Z M55.377875,48.48025 C52.9835,48.48025 51.0355,46.532375 51.0355,44.137875 C51.0355,41.743375 52.9835,39.7955 55.377875,39.7955 C57.77225,39.7955 59.72025,41.743375 59.72025,44.137875 C59.72025,46.532375 57.77225,48.48025 55.377875,48.48025 Z M63.995875,35.6535 L62.860125,35.6535 C62.233875,35.6535 61.724375,35.144 61.724375,34.51775 L61.724375,33.382 L63.99575,33.382 L63.99575,35.6535 L63.995875,35.6535 Z" id="Shape"></path>
        </g>
    </g>
</svg>